<?xml version="1.0" encoding="UTF-8"?>
<!-- Generator: Adobe Illustrator 25.2.1, SVG Export Plug-In . SVG Version: 6.00 Build 0)  -->
<svg xmlns="http://www.w3.org/2000/svg" xmlns:xlink="http://www.w3.org/1999/xlink" version="1.1" id="Capa_1" x="0px" y="0px" viewBox="0 0 512 512" style="enable-background:new 0 0 512 512;" xml:space="preserve" width="512" height="512">
<g>
	<g>
		<path style="fill:#FFFFFF;" d="M352.48,507.522c-30.525-0.002-62.63-8.635-92.846-24.97c-4.609-2.492-9.133-5.131-13.507-7.682    c-13.064-7.62-25.401-14.814-38.438-17.415c-4.24-0.845-8.789-1.253-13.908-1.253c-8.829,0-17.972,1.211-27.652,2.494    c-10.307,1.365-20.966,2.776-31.949,2.776c-1.399,0-2.804-0.022-4.203-0.072c-43.623-1.511-86.6-29.611-109.485-71.59    c-19.579-35.914-25.377-81.36-16.32-127.965c4.881-25.121,13.792-49.483,26.479-72.41c23.593-42.63,54.166-75.642,90.917-98.183    c2.184-3.45,4.646-6.588,7.345-9.359c10.696-10.976,25.78-17.548,41.773-18.294c12.412-28.579,40.317-51.091,69.163-54.396    c1.355-0.156,2.734-0.273,4.131-0.355c2.625-2.584,6.186-4.22,10.131-4.36c0.183-0.006,0.367-0.01,0.547-0.01    c4.983,0,9.47,2.417,12.259,6.21c19.581,4.262,37.269,15.2,49.549,30.494c4.383-1.295,9.166-1.969,14.203-1.969    c7.246,0,14.235,1.432,20.206,4.138c10.701,4.854,18.264,12.786,23.487,20.555c1.9-0.141,3.816-0.213,5.741-0.213    c24.49,0,47.878,11.424,61.038,29.817c10.599,14.817,15.186,33.978,12.846,52.596c17.546,20.238,31.305,42.908,40.949,67.482    c25.493,64.948,22.266,142.17-8.626,206.566c-9.634,20.072-20.394,35.812-32.9,48.121c-24.072,23.69-58.921,37.964-95.615,39.161    C356.022,507.492,354.253,507.522,352.48,507.522z"/>
	</g>
	<g>
		<g>
			<g>
				<g>
					<path style="fill:#020334;" d="M19.109,264.747c-7.701,39.626-4.58,82.336,14.743,117.779       c19.323,35.443,56.31,62.273,96.654,63.668c26.83,0.928,53.829-8.905,80.157-3.66c20.428,4.07,37.885,16.724,56.208,26.631       c27.685,14.969,58.972,24.085,90.428,23.061c31.457-1.024,63.004-12.719,85.435-34.796       c12.668-12.468,22.166-27.833,29.855-43.858c28.862-60.16,32.56-132.312,8.182-194.424       C437.88,109.863,313.978,54.183,201.481,76.338C130.467,90.323,78.376,134.623,43.964,196.802       C32.24,217.986,23.73,240.971,19.109,264.747z"/>
				</g>
			</g>
			<g>
				<path style="fill:#4647DE;" d="M352.611,356.328c20.282,9.453,45.205,6.05,64.052-6.014      c18.847-12.064,31.915-31.854,38.836-53.134c8.429-25.918,6.424-57.398-11.418-78.001c8.733-6.452,11.457-19.176,7.739-29.377      c-3.719-10.202-10.952-18.468-21.173-22.133c12.341-19.533,11.564-46.515-1.882-65.305      c-13.445-18.79-39.988-27.236-62.458-21.86c-4.611-9.811-11.843-18.815-21.715-23.294c-9.872-4.478-25.451-3.789-33.178,3.813      c-13.117-24.661-42.082-39.885-69.833-36.704c-27.751,3.181-53.123,28.018-60.32,55.008      c-14.883-2.332-30.939,2.396-41.451,13.187c-10.512,10.79-16.237,29.603-11.199,43.8c-23.449,6.227-42.476,26.725-46.942,50.573      c-4.467,23.848,8.329,50.707,27.935,64.998c-18.241,13.559-26.439,38.506-21.878,60.772      c4.562,22.266,20.808,41.31,41.167,51.414c20.359,10.104,44.358,11.708,66.53,6.708c12.545-2.829,24.756-7.77,34.951-15.61      c8.118,20.457,29.276,31.273,50.884,35.454c13.075,2.529,26.928,2.422,39.366-2.338      C333.064,383.524,348.472,368.985,352.611,356.328z"/>
			</g>
			<g>
				<g>
					<path style="fill:#FFC5D2;" d="M187.327,380.841c-2.265-21.51-7.984-82.888-6.649-143.053c0,0-30.529-109.048-10.997-119.487       c19.532-10.439,22.842,8.525,25.574,15.564c2.732,7.039,25.255,78.578,25.255,78.578l3.673-3.529       c0,0-14.244-113.162-5.932-124.748c4.895-6.823,25.531-10.941,30.048,1.004c4.516,11.945,11.216,118.211,11.216,118.21       c2.958-22.653,4.869-45.436,8.269-68.033c1.705-11.333,3.735-22.631,6.493-33.759c1.74-7.022,3.653-22.571,10.208-26.973       c1.925-1.292,4.297-1.731,6.61-1.884c7.804-0.517,23.28,2.588,24.903,12.248c2.273,13.53-21.058,122.518-21.058,122.518       s46.582-118.131,61.588-117.522c15.006,0.608,23.66,15.235,21.486,24.059c-2.173,8.824-47.66,120.573-48.118,127.064       c-0.459,6.491-8.824,39.872-8.824,39.872s29.8-16.667,45.685-24.996c15.819-8.294,31.841-7.376,37.001,1.323       c7.81,13.168,2.702,19.954-9.283,32.348c-11.984,12.393-63.205,40.927-65.907,49.003c-1.976,5.908-12.179,39.226-17.516,56.693       c-2.054,6.723-7.863,11.566-14.841,12.417c-21.722,2.647-69.229,5.555-100.69-13.748       C190.878,391.161,187.897,386.259,187.327,380.841z"/>
				</g>
				<g>
					<path style="fill:#020334;" d="M254.148,321.236c-0.168,0-0.335-0.066-0.46-0.197c-0.241-0.254-0.229-0.655,0.024-0.896       c0.342-0.326,34.601-32.599,67.888-40.401c8.927-5.316,18.492-10.632,28.434-15.798l2.385-1.246       c12.488-6.55,31.365-16.449,43.928-11.501c4.748,1.869,8.186,5.746,10.216,11.526c0.118,0.331-0.057,0.692-0.387,0.809       c-0.326,0.107-0.692-0.058-0.808-0.388c-1.905-5.416-5.095-9.038-9.484-10.765c-12.018-4.733-30.588,5.001-42.877,11.443       l-2.387,1.249c-9.952,5.171-19.526,10.49-28.456,15.811c-0.054,0.034-0.116,0.058-0.179,0.073       c-32.977,7.683-67.059,39.784-67.399,40.107C254.462,321.178,254.304,321.236,254.148,321.236z"/>
				</g>
				<g>
					<path style="fill:#020334;" d="M203.078,220.16c-0.359,0-0.704-0.205-0.864-0.555c-0.22-0.477-0.009-1.041,0.467-1.261       c34.79-15.971,74.359-19.5,111.423-9.928c0.508,0.131,0.815,0.651,0.682,1.158c-0.132,0.508-0.64,0.809-1.159,0.684       c-36.641-9.457-75.759-5.973-110.153,9.815C203.347,220.132,203.211,220.16,203.078,220.16z"/>
				</g>
			</g>
			<g>
				<path style="fill:#FFB800;" d="M358.893,368.032c0,0,18.453-4.856,19.424-29.784c0,0,2.266,21.69,19.1,27.194      c0,0-15.539,9.388-15.863,27.841C381.555,393.283,377.67,371.916,358.893,368.032z"/>
			</g>
			<g>
				<g>
					<path style="fill:#FFB800;" d="M71.417,184.798c0,0,18.453-4.856,19.424-29.784c0,0,2.266,21.69,19.1,27.194       c0,0-15.539,9.389-15.863,27.841C94.078,210.049,90.193,188.683,71.417,184.798z"/>
				</g>
				<g>
					<path style="fill:#FFB800;" d="M235.227,49.477c0,0,18.453-4.856,19.424-29.784c0,0,2.266,21.69,19.1,27.194       c0,0-15.539,9.389-15.863,27.841C257.888,74.728,254.003,53.362,235.227,49.477z"/>
				</g>
				<g>
					<path style="fill:#FFB800;" d="M401.626,226.236c0,0,18.453-4.856,19.424-29.784c0,0,2.266,21.691,19.1,27.194       c0,0-15.539,9.388-15.863,27.841C424.288,251.487,420.403,230.121,401.626,226.236z"/>
				</g>
			</g>
			<g>
				<g>
					<path style="fill:#FFF1E4;" d="M99.32,385.687c-0.269,1.962-0.666,3.888-1.19,5.776c-0.526,1.89-1.098,3.75-1.716,5.58       c-0.166,0.483-0.424,1.263-0.769,2.34c-0.348,1.077-0.755,2.273-1.216,3.59c-0.464,1.316-0.992,2.677-1.585,4.082       c-0.593,1.405-1.208,2.676-1.846,3.813c-0.64,1.137-1.301,2.067-1.981,2.787c-0.683,0.721-1.353,1.055-2.011,1.003       c-0.66-0.052-1.25-0.428-1.769-1.127c-0.521-0.699-0.967-1.567-1.343-2.601c-0.375-1.034-0.691-2.189-0.948-3.462       c-0.259-1.273-0.465-2.501-0.62-3.684c-0.155-1.182-0.271-2.262-0.354-3.241c-0.083-0.979-0.139-1.717-0.171-2.215       c-0.191,0.417-0.491,1.081-0.898,1.993c-0.409,0.912-0.906,1.936-1.495,3.065c-0.589,1.134-1.229,2.286-1.924,3.461       c-0.693,1.175-1.4,2.252-2.116,3.228c-0.716,0.977-1.435,1.775-2.151,2.39c-0.716,0.617-1.39,0.906-2.016,0.87       c-0.828-0.047-1.505-0.445-2.036-1.2c-0.528-0.752-0.932-1.704-1.206-2.854c-0.276-1.15-0.468-2.427-0.573-3.831       c-0.108-1.405-0.152-2.787-0.132-4.152c0.02-1.365,0.062-2.639,0.124-3.82c0.064-1.181,0.13-2.121,0.187-2.805       c0.129-1.556,0.234-3.113,0.357-4.621c0.123-1.506,0.294-3.044,0.509-4.614c0.076-0.555,0.197-1.314,0.362-2.278       c0.165-0.962,0.418-1.904,0.761-2.824c0.344-0.923,0.787-1.723,1.328-2.403c0.544-0.682,1.263-1.046,2.118-1.053       c0.719-0.006,1.322,0.335,1.765,0.984c0.443,0.649,0.776,1.502,0.999,2.552c0.221,1.05,0.352,2.211,0.395,3.482       c0.043,1.271,0.041,2.499-0.004,3.683c-0.045,1.184-0.12,2.266-0.221,3.248c-0.101,0.982-0.2,1.703-0.296,2.157       c-0.09,0.509-0.135,0.763-0.224,1.272c0.157-0.418,0.424-1.078,0.796-1.978c0.373-0.9,0.821-1.92,1.344-3.058       c0.523-1.138,1.074-2.307,1.656-3.506c0.579-1.2,1.17-2.292,1.772-3.275c0.602-0.983,1.178-1.795,1.733-2.433       c0.555-0.641,1.051-0.965,1.481-0.965c0.559,0.001,1.055,0.37,1.473,1.092c0.418,0.724,0.757,1.646,1.019,2.77       c0.262,1.127,0.466,2.37,0.613,3.735c0.144,1.365,0.257,2.684,0.331,3.961c0.073,1.277,0.108,2.428,0.101,3.451       c-0.009,1.023-0.009,1.751-0.001,2.179c0.104-0.519,0.3-1.339,0.587-2.456c0.287-1.117,0.641-2.362,1.062-3.733       c0.419-1.372,0.904-2.773,1.448-4.199c0.544-1.425,1.132-2.727,1.76-3.899c0.628-1.172,1.289-2.12,1.989-2.838       c0.697-0.719,1.41-1.05,2.133-0.989c0.822,0.069,1.447,0.398,1.865,0.979c0.419,0.581,0.691,1.268,0.817,2.058       c0.123,0.787,0.162,1.6,0.113,2.441C99.458,384.435,99.396,385.132,99.32,385.687z"/>
					<path style="fill:#FFF1E4;" d="M122.72,409.956c-0.09,0.655-0.256,1.432-0.496,2.333c-0.24,0.901-0.581,1.75-1.023,2.544       c-0.443,0.796-0.98,1.446-1.617,1.954c-0.634,0.506-1.412,0.706-2.33,0.601c-1.213-0.138-2.064-0.68-2.549-1.629       c-0.487-0.952-0.777-2.052-0.872-3.307c-0.095-1.255-0.078-2.523,0.047-3.803c0.125-1.28,0.224-2.297,0.295-3.052       c-2.416,0.133-4.794,0.232-7.133,0.294c-0.171,0.744-0.438,1.663-0.804,2.753c-0.366,1.09-0.842,2.126-1.425,3.111       c-0.584,0.986-1.282,1.822-2.09,2.504c-0.809,0.682-1.726,0.975-2.745,0.879c-0.788-0.074-1.366-0.417-1.732-1.031       c-0.364-0.612-0.609-1.323-0.731-2.128c-0.121-0.803-0.153-1.627-0.089-2.464c0.065-0.839,0.136-1.534,0.213-2.091       c0.256-1.864,0.658-3.69,1.201-5.475c0.544-1.787,1.15-3.569,1.778-5.323c0.331-0.922,0.741-2.018,1.246-3.263       c0.504-1.242,1.087-2.521,1.75-3.832c0.661-1.309,1.405-2.599,2.227-3.861c0.823-1.26,1.717-2.374,2.681-3.338       c0.964-0.964,2.016-1.719,3.159-2.267c1.14-0.545,2.351-0.751,3.631-0.615c1.247,0.133,2.292,0.529,3.134,1.184       c0.842,0.658,1.546,1.482,2.109,2.474c0.564,0.995,0.995,2.096,1.296,3.309c0.299,1.212,0.522,2.433,0.671,3.662       c0.148,1.231,0.251,2.429,0.308,3.598c0.057,1.169,0.105,2.204,0.148,3.107c0.133,2.173,0.2,4.366,0.197,6.574       C123.172,405.567,123.02,407.767,122.72,409.956z M114.858,396.964c0.054-0.393,0.119-1.041,0.193-1.945       c0.074-0.904,0.089-1.816,0.05-2.732c-0.041-0.916-0.187-1.746-0.434-2.484c-0.247-0.738-0.668-1.142-1.26-1.204       c-0.326-0.035-0.669,0.155-1.026,0.564c-0.356,0.411-0.696,0.941-1.016,1.586c-0.322,0.645-0.631,1.368-0.922,2.168       c-0.293,0.798-0.558,1.565-0.79,2.305c-0.234,0.737-0.426,1.406-0.575,2.002c-0.149,0.599-0.258,1.027-0.326,1.286       c1.992,0.037,3.964-0.004,5.911-0.125C114.741,397.816,114.78,397.532,114.858,396.964z"/>
					<path style="fill:#FFF1E4;" d="M145.199,385.19c-0.103,0.753-0.431,1.373-0.98,1.863c-0.551,0.492-1.201,0.865-1.88,1.145       c-0.631,0.26-1.298,0.584-1.974,0.911c-0.676,0.327-1.312,0.708-1.904,1.147c-0.594,0.439-1.098,0.947-1.508,1.525       c-0.413,0.58-0.673,1.26-0.781,2.044c-0.094,0.688-0.015,1.329,0.236,1.928c0.249,0.597,0.575,1.196,0.976,1.799       c0.402,0.6,0.85,1.226,1.343,1.872c0.493,0.646,0.931,1.358,1.308,2.122c0.377,0.765,0.668,1.612,0.875,2.538       c0.206,0.928,0.229,1.98,0.068,3.156c-0.112,0.816-0.412,1.717-0.895,2.7c-0.485,0.983-1.095,1.959-1.826,2.925       c-0.731,0.967-1.565,1.888-2.503,2.764c-0.935,0.875-1.905,1.638-2.909,2.289c-1.007,0.65-2.031,1.152-3.08,1.503       c-1.046,0.348-2.028,0.466-2.944,0.352c-1.017-0.126-1.879-0.512-2.589-1.164c-0.711-0.652-0.989-1.532-0.836-2.643       c0.103-0.751,0.376-1.424,0.825-2.019c0.448-0.593,0.976-1.154,1.579-1.678c0.603-0.523,1.265-1.023,1.979-1.501       c0.716-0.477,1.374-0.962,1.972-1.451c0.599-0.489,1.121-1.013,1.565-1.573c0.444-0.558,0.713-1.18,0.807-1.868       c0.13-0.947-0.074-1.964-0.607-3.044c-0.533-1.081-1.137-2.204-1.81-3.367c-0.675-1.164-1.271-2.343-1.789-3.536       c-0.521-1.193-0.701-2.361-0.544-3.507c0.192-1.404,0.773-2.839,1.738-4.298c0.968-1.461,2.128-2.765,3.484-3.909       c1.356-1.144,2.828-2.046,4.418-2.707c1.587-0.66,3.102-0.895,4.542-0.704c1.145,0.152,2.081,0.628,2.803,1.424       C145.079,383.023,145.361,384.013,145.199,385.19z"/>
					<path style="fill:#FFF1E4;" d="M169.545,395.26c-0.372,2.713-0.812,5.423-1.315,8.133c-0.505,2.709-1.042,5.404-1.609,8.087       c-0.1,0.484-0.223,1.141-0.37,1.968c-0.147,0.83-0.335,1.718-0.566,2.667c-0.23,0.951-0.494,1.901-0.79,2.856       c-0.298,0.957-0.672,1.807-1.125,2.556c-0.453,0.747-0.983,1.332-1.59,1.757c-0.609,0.425-1.304,0.576-2.086,0.457       c-0.684-0.104-1.276-0.344-1.775-0.72c-0.499-0.374-0.895-0.827-1.187-1.353c-0.294-0.529-0.499-1.108-0.612-1.743       c-0.113-0.633-0.123-1.276-0.033-1.931c0.148-1.078,0.327-2.159,0.543-3.246c0.216-1.085,0.462-2.156,0.741-3.217       c-1.965-0.093-2.948-0.138-4.915-0.224c-0.215,0.837-0.46,1.842-0.738,3.018c-0.278,1.176-0.664,2.287-1.156,3.332       c-0.494,1.047-1.139,1.911-1.931,2.596c-0.792,0.685-1.795,0.943-3.001,0.772c-0.753-0.106-1.349-0.364-1.793-0.776       c-0.442-0.41-0.774-0.906-0.995-1.488c-0.221-0.579-0.351-1.206-0.391-1.878c-0.04-0.669-0.022-1.302,0.059-1.889       c0.269-1.96,0.619-3.904,1.049-5.826c0.429-1.919,0.812-3.86,1.145-5.81c0.35-2.05,0.657-4.114,0.925-6.193       c0.268-2.077,0.563-4.178,0.929-6.24c0.121-0.679,0.263-1.482,0.404-2.392c0.141-0.91,0.372-1.755,0.694-2.528       c0.323-0.77,0.776-1.401,1.357-1.885c0.581-0.483,1.382-0.655,2.394-0.512c1.405,0.199,2.416,0.722,3.032,1.559       c0.617,0.838,0.998,1.826,1.143,2.964c0.144,1.14,0.132,2.322-0.036,3.547c-0.168,1.226-0.319,2.327-0.454,3.308       c-0.179,1.308-0.388,2.587-0.626,3.836c-0.238,1.249-0.477,2.505-0.717,3.77c2.14-0.008,3.209-0.01,5.348-0.01       c0.252-1.597,0.502-3.178,0.75-4.741c0.248-1.565,0.549-3.138,0.841-4.677c0.141-0.739,0.279-1.546,0.428-2.39       c0.149-0.842,0.385-1.608,0.713-2.295c0.327-0.684,0.792-1.223,1.397-1.616c0.602-0.391,1.442-0.508,2.519-0.343       c0.913,0.139,1.619,0.516,2.119,1.128c0.498,0.609,0.868,1.319,1.108,2.123c0.24,0.806,0.367,1.644,0.38,2.513       c0.013,0.87-0.026,1.649-0.12,2.335C169.597,394.877,169.58,395.005,169.545,395.26z"/>
					<path style="fill:#FFF1E4;" d="M207.357,395.689c-0.195,1.428-0.599,2.974-1.211,4.637c-0.612,1.662-1.336,3.33-2.168,4.995       c-0.83,1.668-1.705,3.28-2.619,4.834c-0.914,1.556-1.753,2.923-2.514,4.101c-0.425,0.664-0.951,1.506-1.572,2.522       c-0.623,1.016-1.312,2.098-2.066,3.24c-0.757,1.146-1.553,2.29-2.39,3.436c-0.839,1.145-1.683,2.156-2.533,3.032       c-0.85,0.876-1.694,1.571-2.528,2.083c-0.837,0.513-1.628,0.707-2.375,0.582c-1.043-0.174-1.729-0.684-2.064-1.524       s-0.436-1.735-0.307-2.683c0.125-0.915,0.413-1.862,0.863-2.84c0.451-0.978,0.98-1.935,1.593-2.869       c0.612-0.934,1.265-1.826,1.966-2.68c0.698-0.852,1.345-1.612,1.934-2.283c-0.629-0.271-1.222-0.672-1.78-1.202       c-0.561-0.528-0.946-1.111-1.159-1.75c-0.365-1.231-0.724-2.611-1.081-4.142c-0.358-1.528-0.652-3.077-0.887-4.635       c-0.235-1.557-0.399-3.106-0.489-4.642c-0.09-1.536-0.047-2.923,0.123-4.166c0.081-0.589,0.232-1.222,0.459-1.905       c0.227-0.68,0.536-1.299,0.928-1.852c0.393-0.555,0.87-0.992,1.43-1.319c0.562-0.326,1.216-0.425,1.965-0.3       c0.848,0.141,1.552,0.585,2.117,1.332c0.563,0.745,1.03,1.65,1.402,2.714c0.369,1.063,0.651,2.231,0.844,3.498       c0.193,1.271,0.338,2.512,0.437,3.735c0.099,1.22,0.163,2.334,0.191,3.342c0.028,1.008,0.066,1.802,0.12,2.379       c0.198-0.47,0.519-1.176,0.967-2.123c0.447-0.945,0.974-1.985,1.579-3.121c0.607-1.136,1.283-2.293,2.026-3.47       c0.745-1.177,1.505-2.232,2.283-3.167c0.775-0.933,1.566-1.669,2.373-2.211c0.804-0.541,1.58-0.747,2.329-0.616       c0.486,0.085,0.87,0.334,1.148,0.747c0.276,0.413,0.473,0.876,0.586,1.393c0.112,0.515,0.167,1.039,0.162,1.57       C207.433,394.887,207.406,395.332,207.357,395.689z"/>
					<path style="fill:#FFF1E4;" d="M213.31,432.704c-1.976-0.321-3.625-1.089-4.951-2.309c-1.325-1.22-2.353-2.743-3.079-4.574       c-0.726-1.831-1.169-3.897-1.331-6.195c-0.162-2.298-0.07-4.676,0.273-7.13c0.32-2.29,0.897-4.574,1.73-6.841       c0.833-2.268,1.901-4.258,3.202-5.966c1.302-1.708,2.831-3.026,4.584-3.942c1.754-0.915,3.737-1.174,5.949-0.782       c2.145,0.38,3.865,1.266,5.157,2.66c1.289,1.393,2.242,3.073,2.846,5.045c0.604,1.975,0.928,4.132,0.97,6.472       c0.044,2.34-0.103,4.655-0.437,6.937c-0.372,2.543-0.976,4.902-1.801,7.071c-0.827,2.169-1.866,4.017-3.121,5.55       c-1.257,1.534-2.716,2.665-4.384,3.402C217.249,432.839,215.381,433.04,213.31,432.704z M217.716,405.599       c-0.616-0.106-1.178,0.049-1.687,0.461c-0.508,0.415-0.967,0.997-1.371,1.745c-0.405,0.75-0.743,1.613-1.014,2.587       c-0.272,0.976-0.479,1.969-0.623,2.981c-0.162,1.144-0.253,2.299-0.269,3.467c-0.016,1.17,0.059,2.234,0.22,3.195       c0.163,0.961,0.424,1.756,0.784,2.382c0.36,0.628,0.847,0.99,1.461,1.093c0.711,0.12,1.328-0.14,1.851-0.786       c0.52-0.643,0.975-1.45,1.361-2.419c0.385-0.967,0.699-1.983,0.934-3.046c0.236-1.062,0.404-1.953,0.508-2.672       c0.127-0.881,0.205-1.82,0.232-2.82c0.027-0.998-0.029-1.936-0.171-2.811c-0.141-0.875-0.384-1.629-0.726-2.253       C218.865,406.08,218.367,405.711,217.716,405.599z"/>
					<path style="fill:#FFF1E4;" d="M256.912,421.313c-0.211,1.342-0.492,2.711-0.84,4.106c-0.35,1.395-0.788,2.725-1.312,3.991       c-0.524,1.266-1.153,2.43-1.886,3.491c-0.735,1.061-1.596,1.941-2.586,2.647c-0.99,0.708-2.13,1.195-3.417,1.469       c-1.291,0.273-2.753,0.261-4.393-0.037c-2.411-0.438-4.438-1.357-6.071-2.781c-1.635-1.424-2.926-3.113-3.87-5.071       c-0.944-1.961-1.547-4.088-1.809-6.379c-0.262-2.293-0.232-4.519,0.085-6.672c0.033-0.226,0.065-0.438,0.093-0.634       c0.029-0.196,0.087-0.381,0.128-0.53c0.17-0.616,0.326-1.596,0.579-2.754s0.575-2.387,0.962-3.682       c0.387-1.295,0.836-2.611,1.343-3.943c0.507-1.331,1.087-2.494,1.741-3.49c0.656-0.995,1.387-1.777,2.195-2.343       c0.808-0.566,1.701-0.76,2.674-0.583c0.714,0.129,1.289,0.443,1.721,0.942c0.431,0.498,0.758,1.083,0.982,1.755       c0.224,0.672,0.352,1.364,0.385,2.071c0.033,0.71,0.008,1.353-0.074,1.928c-0.124,0.867-0.341,1.726-0.648,2.581       c-0.306,0.853-0.609,1.707-0.9,2.55c-0.463,1.345-0.887,2.707-1.258,4.075c-0.372,1.371-0.669,2.79-0.89,4.257       c-0.113,0.751-0.209,1.67-0.289,2.758c-0.08,1.088-0.034,2.157,0.142,3.204c0.174,1.047,0.508,1.97,1.003,2.774       c0.495,0.802,1.256,1.294,2.288,1.483c0.998,0.182,1.842-0.008,2.54-0.577c0.697-0.567,1.261-1.293,1.695-2.182       c0.431-0.887,0.769-1.844,1.009-2.871c0.239-1.03,0.418-1.918,0.533-2.667c0.332-2.154,0.482-4.315,0.445-6.479       c-0.035-2.161-0.193-4.327-0.474-6.488c-0.083-0.574-0.143-1.145-0.178-1.711c-0.035-0.563-0.014-1.114,0.064-1.656       c0.127-0.89,0.502-1.619,1.131-2.183c0.629-0.566,1.426-0.757,2.403-0.579c0.811,0.147,1.525,0.59,2.137,1.329       c0.614,0.742,1.124,1.66,1.533,2.762c0.409,1.102,0.724,2.317,0.942,3.645c0.218,1.327,0.374,2.647,0.474,3.948       c0.1,1.304,0.132,2.543,0.099,3.713c-0.033,1.17-0.113,2.136-0.172,2.845c-0.027,0.322-0.053,0.655-0.102,0.964       C257.022,420.618,256.969,420.953,256.912,421.313z"/>
					<path style="fill:#FFF1E4;" d="M285.129,417.853c-0.376,2.301-1.241,4.288-2.579,5.922c-1.341,1.636-2.979,2.975-4.91,4.017       c0.38,0.91,0.757,1.957,1.127,3.141c0.369,1.184,0.674,2.415,0.917,3.688c0.243,1.273,0.407,2.523,0.497,3.749       c0.091,1.226,0.063,2.323-0.081,3.29c-0.154,1.032-0.533,1.892-1.141,2.58c-0.606,0.689-1.495,0.885-2.673,0.607       c-0.986-0.233-1.776-0.898-2.359-2.009c-0.585-1.114-1.06-2.393-1.419-3.85c-0.359-1.457-0.661-2.937-0.907-4.44       c-0.244-1.502-0.506-2.729-0.785-3.67c-0.607,0.077-1.205,0.18-1.79,0.312c-0.583,0.13-1.182,0.252-1.794,0.362       c-0.145,0.711-0.357,1.686-0.628,2.915c-0.271,1.229-0.632,2.42-1.079,3.574c-0.449,1.153-1.004,2.107-1.67,2.869       c-0.663,0.762-1.471,1.038-2.433,0.839c-1.055-0.219-1.815-0.802-2.275-1.766c-0.459-0.961-0.725-2.05-0.797-3.274       c-0.071-1.223-0.031-2.457,0.126-3.705c0.154-1.243,0.288-2.228,0.398-2.943c0.235-1.523,0.503-3.025,0.802-4.502       c0.299-1.476,0.571-2.986,0.816-4.528c0.223-1.41,0.421-2.825,0.594-4.241c0.172-1.413,0.371-2.837,0.591-4.266       c0.05-0.325,0.114-0.738,0.19-1.241c0.076-0.5,0.178-1.014,0.307-1.535c0.129-0.524,0.263-1.021,0.399-1.488       c0.135-0.465,0.304-0.831,0.509-1.089c0.423-0.61,1.254-1.112,2.492-1.502c1.238-0.391,2.58-0.69,4.024-0.894       c1.444-0.206,2.843-0.323,4.193-0.35c1.353-0.029,2.354,0.014,3.005,0.132c1.655,0.298,3.078,0.858,4.26,1.687       c1.183,0.827,2.121,1.835,2.81,3.034c0.691,1.199,1.138,2.533,1.342,4.007C285.412,414.762,285.385,416.285,285.129,417.853z        M276.049,416.804c0.138-0.857,0.047-1.543-0.272-2.058c-0.319-0.518-0.914-0.857-1.788-1.021       c-0.649-0.122-1.322-0.131-2.02-0.03c-0.701,0.104-1.349,0.251-1.944,0.442c-0.275,2.604-0.647,5.2-1.093,7.769       c0.713-0.096,1.453-0.258,2.223-0.482c0.767-0.222,1.493-0.541,2.178-0.954c0.681-0.411,1.271-0.912,1.766-1.497       C275.593,418.386,275.911,417.663,276.049,416.804z"/>
					<path style="fill:#FFF1E4;" d="M322.313,422.709c-0.477,3.004-1.056,6.051-1.708,9.102c-0.655,3.051-1.352,6.09-2.068,9.079       c-0.127,0.539-0.286,1.271-0.476,2.188c-0.191,0.92-0.425,1.899-0.701,2.936c-0.277,1.039-0.584,2.068-0.919,3.09       c-0.338,1.024-0.744,1.916-1.223,2.685c-0.478,0.766-1.027,1.343-1.645,1.738c-0.62,0.394-1.319,0.486-2.097,0.282       c-0.681-0.178-1.265-0.492-1.755-0.941c-0.49-0.446-0.873-0.966-1.152-1.553c-0.281-0.59-0.469-1.226-0.564-1.914       c-0.095-0.686-0.085-1.374,0.027-2.069c0.183-1.143,0.404-2.297,0.666-3.464c0.262-1.164,0.559-2.318,0.892-3.467       c-1.966-0.261-2.964-0.403-4.89-0.694c-0.251,0.891-0.538,1.958-0.858,3.195c-0.32,1.237-0.736,2.38-1.246,3.425       c-0.512,1.048-1.159,1.867-1.94,2.472c-0.781,0.605-1.755,0.729-2.923,0.394c-0.729-0.209-1.305-0.55-1.73-1.028       c-0.424-0.475-0.74-1.024-0.944-1.647c-0.204-0.621-0.318-1.282-0.342-1.981c-0.023-0.697,0.012-1.352,0.107-1.956       c0.32-2.015,0.736-4.035,1.24-6.041c0.504-2.004,0.973-4.055,1.395-6.123c0.444-2.174,0.849-4.371,1.209-6.574       c0.359-2.201,0.738-4.411,1.17-6.551c0.142-0.704,0.308-1.534,0.472-2.469s0.411-1.791,0.745-2.566       c0.334-0.772,0.792-1.391,1.375-1.858c0.583-0.466,1.38-0.612,2.388-0.437c1.398,0.242,2.403,0.794,3.008,1.666       c0.605,0.872,0.968,1.902,1.084,3.095c0.115,1.196,0.067,2.446-0.146,3.748c-0.213,1.302-0.411,2.484-0.59,3.539       c-0.238,1.408-0.511,2.793-0.813,4.147c-0.302,1.354-0.609,2.719-0.918,4.094c2.138,0.147,3.212,0.211,5.365,0.322       c0.342-1.765,0.678-3.511,1.004-5.226c0.327-1.718,0.7-3.433,1.054-5.097c0.17-0.799,0.337-1.667,0.513-2.569       c0.176-0.9,0.433-1.711,0.776-2.431c0.343-0.718,0.818-1.276,1.429-1.681c0.608-0.402,1.45-0.515,2.526-0.334       c0.913,0.153,1.617,0.551,2.111,1.202c0.492,0.648,0.852,1.406,1.078,2.272c0.225,0.869,0.333,1.778,0.322,2.727       c-0.012,0.951-0.076,1.809-0.196,2.565C322.381,422.285,322.358,422.426,322.313,422.709z"/>
					<path style="fill:#FFF1E4;" d="M346.666,451.11c-0.113,0.74-0.309,1.612-0.585,2.615c-0.276,1.003-0.653,1.937-1.135,2.8       c-0.482,0.866-1.058,1.559-1.734,2.09c-0.673,0.529-1.49,0.716-2.445,0.565c-1.263-0.199-2.137-0.823-2.618-1.88       c-0.483-1.061-0.753-2.284-0.812-3.684c-0.058-1.4,0.004-2.824,0.182-4.269c0.178-1.445,0.322-2.604,0.425-3.465       c-2.5,0.044-4.952,0.018-7.352-0.08c-0.209,0.835-0.524,1.86-0.944,3.059c-0.421,1.199-0.949,2.319-1.581,3.358       c-0.633,1.041-1.373,1.892-2.217,2.553c-0.844,0.661-1.784,0.878-2.815,0.657c-0.797-0.17-1.373-0.608-1.726-1.318       c-0.351-0.706-0.576-1.51-0.671-2.407c-0.095-0.896-0.095-1.808,0.005-2.73c0.1-0.925,0.204-1.693,0.306-2.309       c0.344-2.061,0.844-4.089,1.488-6.07c0.645-1.984,1.355-3.971,2.082-5.929c0.383-1.031,0.855-2.254,1.425-3.64       c0.569-1.383,1.216-2.803,1.938-4.25c0.719-1.444,1.513-2.858,2.374-4.225c0.86-1.366,1.78-2.558,2.757-3.575       c0.977-1.017,2.03-1.795,3.169-2.343c1.136-0.546,2.338-0.723,3.615-0.531c1.244,0.186,2.289,0.646,3.136,1.386       c0.847,0.743,1.559,1.666,2.128,2.781c0.571,1.117,1.005,2.359,1.303,3.736c0.295,1.376,0.51,2.771,0.644,4.182       c0.133,1.414,0.216,2.796,0.249,4.149c0.033,1.352,0.057,2.553,0.077,3.603c0.079,2.525,0.081,5.075,0.009,7.627       C347.272,446.113,347.044,448.638,346.666,451.11z M338.999,435.935c0.071-0.453,0.162-1.203,0.27-2.246       c0.108-1.043,0.155-2.099,0.144-3.154c-0.012-1.056-0.137-2.016-0.368-2.871c-0.231-0.854-0.647-1.33-1.244-1.424       c-0.329-0.052-0.681,0.149-1.053,0.601c-0.372,0.454-0.733,1.045-1.078,1.77c-0.348,0.725-0.687,1.541-1.014,2.448       c-0.329,0.905-0.629,1.778-0.898,2.619c-0.269,0.838-0.496,1.601-0.675,2.283c-0.179,0.684-0.31,1.172-0.392,1.467       c2.032,0.161,4.052,0.21,6.054,0.146C338.846,436.918,338.897,436.59,338.999,435.935z"/>
					<path style="fill:#FFF1E4;" d="M381.797,439.137c-0.081,0.831-0.232,2.008-0.46,3.527c-0.228,1.519-0.54,3.186-0.936,4.986       s-0.878,3.62-1.45,5.449c-0.571,1.827-1.234,3.455-1.977,4.879c-0.746,1.429-1.581,2.563-2.503,3.424       c-0.922,0.863-1.942,1.237-3.053,1.135c-1.042-0.096-1.954-0.491-2.737-1.19c-0.785-0.698-1.461-1.539-2.026-2.521       c-0.566-0.983-1.035-2.033-1.406-3.144c-0.371-1.11-0.671-2.132-0.891-3.059c-0.466-1.963-0.929-3.924-1.397-5.872       c-0.466-1.948-0.895-3.932-1.287-5.947c-0.083,0.637-0.125,0.956-0.209,1.593c-0.216,1.63-0.442,3.249-0.679,4.84       c-0.237,1.596-0.593,3.176-0.997,4.694c-0.163,0.611-0.338,1.34-0.541,2.154c-0.204,0.816-0.449,1.613-0.736,2.388       c-0.288,0.778-0.645,1.486-1.07,2.125c-0.424,0.638-0.938,1.083-1.538,1.332c-0.335,0.142-0.637,0.211-0.899,0.214       c-0.264,0.003-0.559,0.021-0.878,0.053c-0.062-0.008-0.093-0.012-0.156-0.02c-0.795-0.099-1.426-0.457-1.897-1.08       c-0.469-0.62-0.828-1.396-1.076-2.327c-0.245-0.931-0.396-1.972-0.451-3.116c-0.055-1.145-0.061-2.276-0.017-3.389       c0.044-1.111,0.118-2.137,0.225-3.081c0.105-0.941,0.199-1.698,0.283-2.261c0.128-0.868,0.349-2.137,0.659-3.814       c0.311-1.677,0.718-3.528,1.216-5.547c0.498-2.016,1.057-4.078,1.673-6.167c0.616-2.092,1.294-3.952,2.042-5.586       c0.745-1.632,1.556-2.918,2.441-3.876c0.885-0.956,1.844-1.357,2.896-1.221c1.017,0.132,1.895,0.674,2.631,1.635       c0.736,0.962,1.368,2.083,1.892,3.365c0.522,1.282,0.937,2.617,1.24,4.005c0.305,1.388,0.559,2.554,0.768,3.492       c0.386,1.83,0.751,3.659,1.093,5.478c0.344,1.822,0.66,3.671,0.954,5.545c0.025,0.08,0.068,0.296,0.129,0.648       s0.143,0.746,0.222,1.172c0.085,0.46,0.188,0.995,0.324,1.583c0.06-0.491,0.096-0.841,0.104-1.05       c0.007-0.209,0.021-0.4,0.042-0.568c0.02-0.17,0.047-0.389,0.078-0.655c0.032-0.262,0.09-0.686,0.148-1.248       c0.128-1.234,0.232-2.505,0.354-3.756c0.122-1.251,0.245-2.481,0.37-3.687c0.055-0.529,0.14-1.262,0.25-2.2       c0.109-0.936,0.257-1.933,0.436-2.983c0.179-1.05,0.396-2.102,0.649-3.149c0.253-1.049,0.565-1.977,0.94-2.794       c0.372-0.815,0.813-1.461,1.325-1.944c0.509-0.481,1.107-0.681,1.799-0.603c0.822,0.093,1.513,0.509,2.069,1.253       c0.557,0.746,1.003,1.672,1.335,2.784c0.332,1.113,0.567,2.352,0.703,3.723c0.136,1.371,0.217,2.72,0.243,4.041       c0.024,1.321,0.003,2.551-0.066,3.68C381.927,437.605,381.859,438.497,381.797,439.137z"/>
					<path style="fill:#FFF1E4;" d="M411.319,440.325c-0.197,3.271-1.037,6.39-2.519,9.32c-1.481,2.93-3.389,5.459-5.7,7.59       c-2.314,2.134-4.942,3.75-7.874,4.879c-2.934,1.129-5.951,1.577-9.034,1.357c-0.042-0.003-0.062-0.005-0.104-0.007       c-0.625-0.045-1.099-0.368-1.423-0.97c-0.324-0.602-0.571-1.355-0.737-2.264c-0.166-0.906-0.249-1.922-0.25-3.054       c-0.001-1.127,0.03-2.239,0.09-3.329c0.059-1.087,0.138-2.069,0.238-2.94c0.1-0.873,0.174-1.535,0.223-1.983       c0.141-1.265,0.296-2.531,0.46-3.785c0.164-1.254,0.383-2.553,0.537-3.797c0.05-0.402,0.123-1.025,0.249-1.828       c0.126-0.806,0.266-1.714,0.421-2.721c0.155-1.007,0.326-2.058,0.513-3.149c0.186-1.091,0.368-2.104,0.55-3.035       c0.181-0.931,0.351-1.749,0.51-2.45c0.16-0.704,0.326-1.172,0.506-1.411c0.476-0.757,1.172-1.395,2.094-1.92       c0.92-0.523,1.905-0.93,2.958-1.224c1.053-0.293,2.117-0.487,3.193-0.582c1.075-0.095,2.01-0.108,2.804-0.038       c2.177,0.193,4.061,0.78,5.65,1.776c1.591,0.999,2.915,2.275,3.958,3.852s1.791,3.372,2.227,5.391       C411.293,436.02,411.45,438.133,411.319,440.325z M402.719,441.357c0.06-0.82-0.017-1.671-0.23-2.547       c-0.213-0.879-0.541-1.69-0.984-2.433c-0.443-0.742-1-1.356-1.662-1.836c-0.662-0.48-1.414-0.756-2.251-0.826       c-0.703-0.058-1.435,0.066-2.196,0.375c-0.175,0.097-0.348,0.427-0.522,0.991c-0.174,0.567-0.331,1.257-0.476,2.071       c-0.145,0.817-0.289,1.708-0.435,2.676c-0.147,0.971-0.269,1.896-0.363,2.775c-0.094,0.879-0.18,1.658-0.259,2.329       c-0.079,0.669-0.132,1.12-0.153,1.344c-0.036,0.374-0.089,0.925-0.161,1.651c-0.072,0.728-0.117,1.446-0.141,2.152       c-0.021,0.71-0.024,1.322-0.01,1.844c0.014,0.522,0.104,0.785,0.278,0.798c1.029,0.076,2.093-0.281,3.193-1.073       c1.097-0.792,2.117-1.79,3.052-2.996c0.934-1.201,1.705-2.478,2.312-3.823C402.313,443.487,402.649,442.326,402.719,441.357z"/>
					<path style="fill:#FFF1E4;" d="M430.33,427.613c0.003,0.817-0.241,1.52-0.724,2.105c-0.486,0.587-1.09,1.057-1.732,1.426       c-0.598,0.343-1.227,0.76-1.866,1.181c-0.639,0.421-1.234,0.897-1.78,1.435c-0.548,0.538-1.001,1.145-1.356,1.823       c-0.358,0.68-0.555,1.461-0.592,2.346c-0.033,0.777,0.102,1.488,0.406,2.137c0.302,0.646,0.678,1.289,1.131,1.928       c0.452,0.636,0.953,1.296,1.497,1.974c0.545,0.678,1.038,1.432,1.468,2.251c0.431,0.819,0.777,1.736,1.038,2.747       c0.26,1.013,0.337,2.179,0.226,3.492c-0.077,0.911-0.345,1.93-0.8,3.048c-0.458,1.118-1.048,2.231-1.767,3.334       c-0.719,1.103-1.548,2.154-2.489,3.155c-0.938,0.999-1.918,1.872-2.938,2.623c-1.022,0.751-2.068,1.342-3.143,1.777       c-1.072,0.433-2.082,0.624-3.03,0.578c-1.052-0.052-1.949-0.377-2.693-0.989c-0.747-0.612-1.048-1.493-0.911-2.66       c0.093-0.789,0.363-1.517,0.814-2.179c0.451-0.66,0.983-1.297,1.593-1.903c0.61-0.606,1.279-1.194,2-1.767       c0.724-0.572,1.384-1.151,1.983-1.733c0.598-0.582,1.115-1.199,1.548-1.852c0.433-0.65,0.682-1.36,0.748-2.13       c0.09-1.06-0.168-2.174-0.77-3.337c-0.602-1.164-1.284-2.374-2.042-3.629c-0.76-1.255-1.446-2.539-2.06-3.844       c-0.615-1.306-0.889-2.608-0.826-3.905c0.076-1.588,0.531-3.23,1.348-4.909c0.82-1.682,1.829-3.186,3.034-4.517       c1.206-1.332,2.541-2.396,4.02-3.215c1.476-0.816,2.936-1.179,4.391-1.101c1.157,0.062,2.158,0.474,2.999,1.244       C429.896,425.321,430.326,426.336,430.33,427.613z"/>
				</g>
			</g>
			<g>
				<g>
					<g>
						<path style="fill:#FFF1E4;" d="M52.478,306.155c-0.597,0-1.079-0.484-1.079-1.08v-38.973c0-0.596,0.482-1.08,1.079-1.08        c0.597,0,1.079,0.484,1.079,1.08v38.973C53.557,305.671,53.075,306.155,52.478,306.155z"/>
					</g>
					<g>
						<path style="fill:#FFF1E4;" d="M71.966,286.668H32.992c-0.597,0-1.079-0.484-1.079-1.08s0.482-1.08,1.079-1.08h38.974        c0.597,0,1.079,0.484,1.079,1.08S72.563,286.668,71.966,286.668z"/>
					</g>
					<g>
						<path style="fill:#FFF1E4;" d="M63.693,299.352c-0.302,0-0.602-0.126-0.815-0.371l-20.957-24.083        c-0.392-0.451-0.345-1.132,0.106-1.524c0.446-0.392,1.133-0.344,1.523,0.105l20.957,24.083        c0.392,0.451,0.345,1.132-0.106,1.524C64.198,299.265,63.945,299.352,63.693,299.352z"/>
					</g>
					<g>
						<path style="fill:#FFF1E4;" d="M40.254,297.422c-0.302,0-0.602-0.126-0.815-0.371c-0.392-0.451-0.345-1.132,0.106-1.524        l24.08-20.958c0.446-0.391,1.133-0.344,1.523,0.105c0.392,0.451,0.345,1.132-0.106,1.524l-24.08,20.958        C40.76,297.335,40.507,297.422,40.254,297.422z"/>
					</g>
				</g>
				<g>
					<g>
						<path style="fill:#FFF1E4;" d="M145.714,249.824c-0.597,0-1.079-0.484-1.079-1.08v-38.973c0-0.596,0.482-1.08,1.079-1.08        c0.597,0,1.079,0.484,1.079,1.08v38.973C146.793,249.34,146.311,249.824,145.714,249.824z"/>
					</g>
					<g>
						<path style="fill:#FFF1E4;" d="M165.2,230.337h-38.972c-0.597,0-1.079-0.484-1.079-1.08c0-0.596,0.482-1.08,1.079-1.08H165.2        c0.597,0,1.079,0.484,1.079,1.08C166.279,229.853,165.797,230.337,165.2,230.337z"/>
					</g>
					<g>
						<path style="fill:#FFF1E4;" d="M156.929,243.022c-0.302,0-0.602-0.126-0.814-0.371l-20.959-24.082        c-0.392-0.451-0.345-1.132,0.106-1.524c0.446-0.392,1.131-0.344,1.523,0.105l20.959,24.082        c0.392,0.451,0.345,1.132-0.106,1.524C157.434,242.935,157.182,243.022,156.929,243.022z"/>
					</g>
					<g>
						<path style="fill:#FFF1E4;" d="M133.488,241.092c-0.302,0-0.602-0.126-0.815-0.371c-0.392-0.451-0.345-1.132,0.106-1.524        l24.083-20.957c0.444-0.392,1.133-0.343,1.523,0.105c0.392,0.451,0.345,1.132-0.106,1.524l-24.083,20.957        C133.993,241.005,133.741,241.092,133.488,241.092z"/>
					</g>
				</g>
				<g>
					<g>
						<path style="fill:#FFF1E4;" d="M393.694,180.545c-0.597,0-1.079-0.484-1.079-1.08v-38.973c0-0.596,0.482-1.08,1.079-1.08        c0.597,0,1.079,0.484,1.079,1.08v38.973C394.773,180.061,394.292,180.545,393.694,180.545z"/>
					</g>
					<g>
						<path style="fill:#FFF1E4;" d="M413.182,161.059h-38.974c-0.597,0-1.079-0.484-1.079-1.08c0-0.596,0.482-1.08,1.079-1.08        h38.974c0.597,0,1.079,0.484,1.079,1.08C414.262,160.575,413.78,161.059,413.182,161.059z"/>
					</g>
					<g>
						<path style="fill:#FFF1E4;" d="M404.909,173.744c-0.302,0-0.602-0.126-0.815-0.371l-20.957-24.083        c-0.392-0.451-0.345-1.132,0.106-1.524c0.444-0.392,1.133-0.344,1.523,0.105l20.957,24.083        c0.392,0.451,0.345,1.132-0.106,1.524C405.415,173.656,405.162,173.744,404.909,173.744z"/>
					</g>
					<g>
						<path style="fill:#FFF1E4;" d="M381.471,171.812c-0.302,0-0.602-0.126-0.815-0.371c-0.392-0.451-0.345-1.132,0.106-1.524        l24.081-20.957c0.446-0.391,1.133-0.344,1.523,0.105c0.392,0.451,0.345,1.132-0.106,1.524l-24.081,20.957        C381.976,171.725,381.724,171.812,381.471,171.812z"/>
					</g>
				</g>
			</g>
		</g>
		<g>
			<g>
				<path style="fill:#FFF1E4;" d="M445.709,361.882c-24.158,0-43.812-19.655-43.812-43.813c0-24.158,19.653-43.813,43.812-43.813      c24.158,0,43.812,19.655,43.812,43.813C489.52,342.227,469.867,361.882,445.709,361.882z M445.709,276.416      c-22.969,0-41.654,18.685-41.654,41.653c0,22.967,18.685,41.653,41.654,41.653s41.654-18.685,41.654-41.653      C487.362,295.101,468.677,276.416,445.709,276.416z"/>
			</g>
			<g>
				<g>
					<path style="fill:#FFF1E4;" d="M482.667,311.495c-1.115-6.597-3.868-13.314-7.932-18.627c-2.637,1.764-5.274,3.529-7.911,5.293       c4.007,5.145,7.591,11.274,9.541,17.497C478.251,314.488,480.781,312.665,482.667,311.495z"/>
				</g>
				<g>
					<path style="fill:#FFF1E4;" d="M477.38,319.256l6.313-2.752c0,0,0.647,7.608-0.486,10.521l-5.827-0.324V319.256z"/>
				</g>
			</g>
		</g>
		<g>
			<g>
				<path style="fill:#FFF1E4;" d="M125.428,349.355c-19.158,0-34.743-15.584-34.743-34.74c0-19.155,15.585-34.74,34.743-34.74      c19.155,0,34.741,15.584,34.741,34.74C160.168,333.771,144.583,349.355,125.428,349.355z M125.428,281.588      c-18.213,0-33.029,14.817-33.029,33.028s14.816,33.028,33.029,33.028c18.211,0,33.027-14.817,33.027-33.028      S143.638,281.588,125.428,281.588z"/>
			</g>
			<g>
				<g>
					<path style="fill:#FFF1E4;" d="M154.732,309.403c-0.884-5.23-3.067-10.557-6.29-14.77c-2.091,1.399-4.182,2.798-6.273,4.197       c3.177,4.08,6.019,8.939,7.565,13.874C151.231,311.776,153.237,310.331,154.732,309.403z"/>
				</g>
				<g>
					<path style="fill:#FFF1E4;" d="M150.54,315.557l5.006-2.182c0,0,0.513,6.032-0.385,8.343l-4.621-0.257V315.557z"/>
				</g>
			</g>
		</g>
	</g>
</g>















</svg>
