<svg width="113" height="114" viewBox="0 0 113 114" fill="none" xmlns="http://www.w3.org/2000/svg">
<path fill-rule="evenodd" clip-rule="evenodd" d="M56.4894 113.638C87.6876 113.638 112.979 88.3471 112.979 57.1489C112.979 25.9507 87.6876 0.659546 56.4894 0.659546C25.2911 0.659546 0 25.9507 0 57.1489C0 88.3471 25.2911 113.638 56.4894 113.638Z" fill="#E4E5F7"/>
<mask id="mask0" style="mask-type:alpha" maskUnits="userSpaceOnUse" x="2" y="5" width="108" height="108">
<path fill-rule="evenodd" clip-rule="evenodd" d="M2.14667 59.0623C2.14667 88.8392 26.2855 112.978 56.0623 112.978C85.8394 112.978 109.978 88.8392 109.978 59.0623C109.978 29.2855 85.8394 5.14667 56.0623 5.14667C26.2855 5.14667 2.14667 29.2855 2.14667 59.0623Z" fill="white"/>
</mask>
<g mask="url(#mask0)">
<path fill-rule="evenodd" clip-rule="evenodd" d="M132.088 65.2337C132.088 106.119 98.9439 139.263 58.0589 139.263C17.1741 139.263 -15.9697 106.119 -15.9697 65.2337C-15.9697 24.3487 17.1741 -8.79492 58.0589 -8.79492C98.9439 -8.79492 132.088 24.3487 132.088 65.2337Z" fill="#E4E5F7"/>
</g>
<mask id="mask1" style="mask-type:alpha" maskUnits="userSpaceOnUse" x="2" y="5" width="108" height="108">
<path fill-rule="evenodd" clip-rule="evenodd" d="M2.14667 59.0623C2.14667 88.8392 26.2855 112.978 56.0623 112.978C85.8394 112.978 109.978 88.8392 109.978 59.0623C109.978 29.2855 85.8394 5.14667 56.0623 5.14667C26.2855 5.14667 2.14667 29.2855 2.14667 59.0623Z" fill="white"/>
</mask>
<g mask="url(#mask1)">
<path fill-rule="evenodd" clip-rule="evenodd" d="M78.1902 113.342C77.9833 113.347 77.7745 113.353 77.5676 113.36C76.9958 113.375 76.4243 113.391 75.8523 113.407C63.2136 113.757 50.5767 114.109 37.938 114.46C37.8835 113.85 37.8291 113.24 37.7764 112.63C37.6022 113.237 37.4279 113.841 37.2537 114.447C33.2059 114.001 29.1582 113.556 25.1105 113.11C25.8547 109.879 26.5971 104.82 27.3394 101.589C28.1236 97.904 28.9077 94.2211 29.692 90.5382C29.8988 89.9195 30.8229 87.3892 33.3893 86.1511C33.8884 85.9117 35.729 85.0239 37.5878 85.6501C38.4083 85.9262 38.419 86.222 39.1559 86.527C40.441 87.0586 44.6705 85.5886 44.6705 85.5886C45.91 85.091 47.5073 84.3958 49.3315 83.4574C52.6786 83.285 56.0257 83.1127 59.373 82.9403C58.674 85.5702 58.0841 87.4144 58.0841 87.4144C57.7973 88.3147 57.4923 89.2513 57.1729 90.2206C57.3362 90.268 57.5052 90.3151 57.6757 90.3567C58.3981 90.5382 59.0987 90.6417 59.7667 90.6889C60.4002 88.2366 60.9774 85.5702 61.384 82.835C62.6927 82.7679 64.0032 82.7005 65.3139 82.6334C65.7856 82.6081 66.2577 82.5845 66.7313 82.5609C69.9043 82.3958 73.077 82.2322 76.25 82.069C76.5475 86.5996 76.8472 91.132 77.1465 95.6625C77.2393 97.0765 77.3318 98.4921 77.426 99.9061C77.4333 100.019 77.4406 100.133 77.4478 100.246C77.6949 104.001 77.9435 109.586 78.1902 113.342Z" fill="#262C7C"/>
<path fill-rule="evenodd" clip-rule="evenodd" d="M60.8576 76.5128C60.4238 78.7999 59.8702 81.0688 59.3728 82.9402C58.674 85.5701 58.0841 87.4145 58.0841 87.4145C57.7973 88.3148 57.4924 89.2514 57.1729 90.2207C51.9671 88.6796 49.6746 84.169 49.3316 83.4575C49.3298 83.4539 49.3298 83.4519 49.3279 83.4484C50.4061 80.9327 51.4843 78.4169 52.5625 75.9011C55.3287 76.1044 58.0932 76.3095 60.8576 76.5128Z" fill="#E4E5F7"/>
<path fill-rule="evenodd" clip-rule="evenodd" d="M50.6942 76.3925C50.1901 79.8457 52.6634 82.999 55.9059 83.3743C59.2884 83.7659 62.5135 81.0196 62.5929 77.3759C58.6266 77.0479 54.6604 76.7203 50.6942 76.3925Z" fill="#9195CB"/>
<path fill-rule="evenodd" clip-rule="evenodd" d="M83.2763 56.5193C83.2763 69.3466 72.8776 79.7453 60.0503 79.7453C47.2232 79.7453 36.8245 69.3466 36.8245 56.5193C36.8245 43.6922 47.2232 33.2935 60.0503 33.2935C72.8776 33.2935 83.2763 43.6922 83.2763 56.5193Z" fill="#BEC1E0"/>
<path fill-rule="evenodd" clip-rule="evenodd" d="M67.2142 76.9829C67.0545 78.8416 66.8929 80.7021 66.7314 82.5608C66.5317 84.8642 66.332 87.1676 66.1324 89.471C65.5316 89.756 64.0976 90.3804 62.1681 90.62C61.433 90.7125 60.6271 90.747 59.7667 90.689C60.4002 88.2367 60.9774 85.5703 61.384 82.8349C61.6327 81.1523 61.8178 79.4442 61.9122 77.7398C61.934 77.3423 61.9558 76.963 61.9757 76.5963C63.4278 76.7034 64.8799 76.8105 66.332 76.9176L67.2142 76.9829Z" fill="#FFD6B0"/>
<path fill-rule="evenodd" clip-rule="evenodd" d="M89.6147 91.6165C89.337 92.6312 88.8433 93.771 88.168 94.891C87.6035 95.4863 87.0753 95.9438 86.7214 96.2487C86.6994 96.2668 86.6778 96.285 86.656 96.3032C86.6994 96.4792 86.7414 96.6571 86.7849 96.8332C85.3165 98.5848 83.4015 100.028 81.2216 100.454C79.8546 100.723 78.615 100.545 77.4479 100.246C77.3935 100.231 77.3408 100.218 77.2882 100.202C76.711 100.05 76.1501 99.8681 75.6019 99.7011C75.2879 99.6049 74.9775 99.5123 74.669 99.4324C74.6635 99.4306 74.6599 99.4288 74.6562 99.4288C73.2931 99.0785 71.9771 98.9567 70.6013 99.712C69.1655 100.498 69.4686 101.249 66.5916 104.91C63.8653 108.377 62.504 110.113 60.7252 110.405C56.7391 111.064 52.7749 104.331 52.3611 103.613C54.2742 98.6737 55.8642 94.1704 57.173 90.2207C57.3363 90.2679 57.5051 90.3151 57.6757 90.3568C58.3982 90.5383 59.0988 90.6418 59.7668 90.689C60.4002 88.2367 60.9775 85.5701 61.384 82.8349C61.6327 81.1523 61.8179 79.4441 61.9122 77.7399C61.934 77.3423 61.9558 76.963 61.9758 76.5963C62.1936 72.5649 62.2753 70.3051 61.9122 67.2374C61.4439 63.2679 60.638 61.1079 60.8123 59.8609C60.9212 59.7647 61.0864 59.7102 61.3024 59.6993C65.5298 59.496 89.3314 75.3711 89.9469 88.4872V88.489C89.9959 89.5527 89.8924 90.5982 89.6147 91.6165Z" fill="#E4E5F7"/>
<path fill-rule="evenodd" clip-rule="evenodd" d="M45.5811 64.0156C47.9226 72.0328 54.1599 78.409 51.4457 82.9352C50.7525 84.0912 49.8179 84.7597 48.13 85.5707C43.0793 87.9976 37.8989 87.3853 35.7178 87.1011C30.5235 86.4238 26.4257 84.4773 23.6456 82.7653C19.2251 57.1649 23.5736 35.495 33.0325 26.0106C39.9485 19.076 47.6381 16.9455 47.6381 16.9455C49.4177 16.4526 55.2025 15.3666 62.1212 16.5197C67.7263 18.1806 72.3217 22.0548 75.7739 26.7715C77.0294 28.487 80.2382 32.7453 82.5679 42.078C86.9563 59.6576 84.4157 78.8962 81.1098 79.2261C80.6976 79.2672 80.0343 79.0381 79.0914 77.4827C78.3219 67.0027 77.5525 56.5227 76.7831 46.0426C75.3805 45.7204 73.2893 45.2998 70.7271 45.0143C66.0499 44.4932 63.3564 44.8114 60.466 44.7277C57.4307 44.64 53.1336 44.0766 47.8788 41.8948C43.6458 52.0524 44.1834 59.2302 45.5811 64.0156Z" fill="#262C7C"/>
<path d="M61.3289 53.9954C60.0666 56.4019 60.1274 59.1523 61.5354 61.0832C62.5234 62.4384 63.8887 62.9969 64.5632 63.2166" stroke="#262C7C" stroke-width="1.4" stroke-linecap="round" stroke-linejoin="round"/>
<path fill-rule="evenodd" clip-rule="evenodd" d="M90.2463 113.008C86.2276 113.118 82.2091 113.231 78.1902 113.342L77.2881 100.202L77.2629 99.9027L76.9162 95.5516L75.7345 80.7438C77.9581 80.8092 80.3665 80.9056 82.9714 81.0344C84.115 85.7755 85.2601 90.5165 86.4037 95.2576C86.4891 95.6061 86.5726 95.9548 86.6561 96.3033C86.6995 96.4792 86.7413 96.657 86.785 96.8333C87.9374 101.614 89.092 108.227 90.2463 113.008Z" fill="#E4E5F7"/>
<path fill-rule="evenodd" clip-rule="evenodd" d="M90.9234 89.2912C90.7509 91.7055 89.3767 93.6149 88.168 94.8911C87.6035 95.4864 87.0753 95.9437 86.7214 96.2486C86.6994 96.2669 86.6778 96.2849 86.656 96.3032C84.2873 98.3269 80.7351 99.948 77.4261 99.9061C77.3717 99.9061 77.3172 99.9044 77.2627 99.9026C76.6982 99.8861 76.141 99.8228 75.6019 99.7012C75.2861 99.6304 74.9739 99.5414 74.6689 99.4323C74.6635 99.4305 74.6599 99.4289 74.6562 99.4289C74.5201 99.3779 74.384 99.3252 74.2515 99.2673C72.5725 98.5447 72.0316 97.5573 70.5758 97.6916C68.8714 97.8495 68.412 99.3127 65.5879 101.761C63.3661 103.687 61.5165 105.292 59.6814 104.912C59.2404 104.822 57.6176 104.371 56.3997 101.237C57.231 99.0366 58.5942 95.2249 59.7667 90.6889C60.4002 88.2366 60.9774 85.5702 61.384 82.835C61.6327 81.1522 61.8178 79.4442 61.9122 77.7398C61.934 77.3424 61.9558 76.9629 61.9758 76.5964C62.1936 72.565 62.2753 70.305 61.9122 67.2374C61.4439 63.2679 60.638 61.1078 60.8123 59.8608C60.8467 59.5903 60.9302 59.3654 61.0718 59.1712C61.0954 59.2238 61.1172 59.2765 61.1426 59.3308C61.168 59.3908 61.1953 59.4507 61.2225 59.5141C61.2479 59.574 61.2751 59.6357 61.3023 59.6994C61.4113 59.9515 61.5292 60.2238 61.6545 60.5253C61.6726 60.5689 61.6908 60.6122 61.7089 60.6558C61.7271 60.6994 61.747 60.7447 61.7652 60.7901C61.8215 60.9246 61.8777 61.0642 61.9376 61.2094C62.0175 61.402 62.0992 61.6053 62.1827 61.8193C62.2408 61.9645 62.2988 62.1135 62.3606 62.2676C62.4785 62.5673 62.6002 62.8831 62.7272 63.2188C62.7744 63.3476 62.8234 63.4765 62.8742 63.611C62.9069 63.6999 62.9414 63.7907 62.9741 63.8833C63.0939 64.2009 63.2155 64.5365 63.3407 64.887C65.223 70.1273 66.1633 72.7482 66.3103 75.1443C66.3484 75.7685 66.3538 76.384 66.3284 76.9885C66.3266 77.0591 66.323 77.1299 66.3194 77.2009C66.3175 77.2589 66.3139 77.3152 66.3103 77.3733C66.3048 77.4675 66.2976 77.5601 66.2903 77.6546C66.274 77.8888 66.2522 78.1229 66.2268 78.3533C66.2268 78.3643 66.225 78.3734 66.2232 78.3823C66.1977 78.6003 66.1705 78.8181 66.1378 79.0339C66.1179 79.1773 66.0961 79.3207 66.0707 79.4625C66.0562 79.5587 66.0398 79.6529 66.0217 79.7475C65.9836 79.9617 65.9418 80.174 65.8964 80.3862C65.8728 80.5006 65.8474 80.6149 65.822 80.7293C65.704 81.2522 65.5679 81.7695 65.4172 82.2848C65.3846 82.401 65.3483 82.5174 65.3138 82.6333C65.2793 82.7459 65.2448 82.8586 65.2085 82.9711C65.105 83.3033 64.9943 83.6335 64.8781 83.9656C64.8328 84.0965 64.7856 84.2288 64.7384 84.3615C64.5569 84.8641 64.3663 85.3689 64.1666 85.8753C64.0595 86.1476 63.9506 86.4181 63.8399 86.6921C63.7237 86.9769 63.6057 87.2637 63.4878 87.5505C63.377 87.8137 63.2663 88.0771 63.1556 88.3421C63.0394 88.6198 62.9214 88.8993 62.8016 89.1807C62.533 89.8142 62.2698 90.4059 62.0139 90.9577C61.914 91.1717 61.816 91.3806 61.7198 91.5819C61.6726 91.6837 61.6254 91.7852 61.5764 91.885C61.4802 92.0831 61.3858 92.2753 61.2951 92.4624C61.2406 92.575 61.1862 92.6855 61.1317 92.7946C61.05 92.956 60.972 93.1122 60.8958 93.2647C60.8758 93.3045 60.8576 93.3426 60.8377 93.3807C60.7288 93.5931 60.6253 93.7964 60.5273 93.9908C60.4075 94.2284 60.2931 94.4534 60.186 94.6658C60.1207 94.7965 60.0572 94.9219 59.9973 95.0434C59.9864 95.0653 59.9755 95.0887 59.9646 95.1107C59.9301 95.1813 59.8956 95.2503 59.8648 95.3174C59.7667 95.5226 59.6778 95.7113 59.6016 95.8894C59.5816 95.931 59.5653 95.9711 59.5489 96.011C59.4854 96.1617 59.4328 96.3012 59.3874 96.4301C59.3765 96.461 59.3674 96.49 59.3583 96.5191C59.3475 96.5517 59.3384 96.5828 59.3311 96.6116C59.3184 96.6536 59.3075 96.6933 59.2984 96.7314C59.2876 96.7715 59.2803 96.8097 59.273 96.8458C59.2658 96.8748 59.2621 96.9022 59.2585 96.9275C59.2513 96.9674 59.2458 97.0075 59.244 97.0456C59.2404 97.0837 59.2385 97.12 59.2385 97.1562C59.2385 97.3723 59.2984 97.5464 59.4273 97.6826C60.589 98.9096 64.5641 94.2413 71.0332 94.1739C71.2402 94.1723 71.4435 94.1739 71.6413 94.183C71.7175 94.185 71.7938 94.1884 71.8682 94.1921C72.282 94.2138 72.6759 94.2558 73.0535 94.3139C73.1261 94.3246 73.1987 94.3355 73.2695 94.3482C73.3312 94.3592 73.3911 94.3699 73.4528 94.3808C73.5327 94.3954 73.6143 94.4119 73.6924 94.4282C73.7614 94.4427 73.8303 94.4573 73.8975 94.4736C73.9447 94.4827 73.9901 94.4934 74.0355 94.5061C74.6072 94.6406 75.1354 94.811 75.6346 95.0018C75.7253 95.0361 75.8143 95.0726 75.9032 95.1069C76.1519 95.2069 76.3915 95.3102 76.6238 95.4173C76.7001 95.4518 76.7745 95.4864 76.8471 95.5191C76.8707 95.5318 76.8943 95.5409 76.9161 95.5516C77.2174 95.695 77.5096 95.8402 77.7928 95.9818C77.8454 96.0092 77.898 96.0344 77.9507 96.0618C78.2774 96.227 78.595 96.3885 78.9073 96.5374C78.9944 96.579 79.0815 96.6209 79.1686 96.6608C79.4681 96.7986 79.7622 96.924 80.058 97.0311C80.1071 97.0491 80.1561 97.0674 80.2069 97.0837C80.4537 97.1689 80.7024 97.2417 80.9529 97.2943C81.0019 97.305 81.0527 97.3161 81.1036 97.3252C81.2143 97.3469 81.3268 97.3649 81.4394 97.3778C81.5319 97.3885 81.6263 97.3976 81.7189 97.403C81.757 97.4068 81.7969 97.4086 81.8369 97.4103C82.2652 97.4284 82.7099 97.3885 83.1801 97.2778C83.3089 97.2469 83.4342 97.2126 83.5594 97.1745C83.6137 97.1562 83.6701 97.138 83.7246 97.118C83.7827 97.0983 83.8406 97.0765 83.897 97.0547C83.9569 97.0311 84.015 97.0075 84.0731 96.9819C84.1312 96.9583 84.1875 96.9331 84.2437 96.9057C84.3454 96.8585 84.447 96.8077 84.5468 96.7532C84.948 96.5354 85.3237 96.2704 85.6777 95.9673C85.7194 95.931 85.7612 95.8948 85.8029 95.8567C86.0117 95.6698 86.2113 95.4699 86.4037 95.2575C86.4055 95.2557 86.4074 95.2541 86.4074 95.2523C86.4673 95.1868 86.5272 95.1196 86.5852 95.0506C87.0009 94.5678 87.3821 94.0251 87.7342 93.4444C87.7868 93.3571 87.8395 93.2702 87.8903 93.1812C87.9121 93.1466 87.9321 93.1122 87.9502 93.0776C88.0028 92.9868 88.0537 92.8926 88.1045 92.7999C88.1553 92.7091 88.2043 92.6165 88.2515 92.5258C88.2933 92.4495 88.333 92.3717 88.3731 92.2916C88.5401 91.9649 88.698 91.6311 88.8487 91.2917C88.9013 91.1755 88.9522 91.0592 89.003 90.9414C89.1827 90.5275 89.3515 90.1044 89.5129 89.6798C89.5675 89.5381 89.6201 89.3965 89.6728 89.2551C89.7672 88.9992 89.8579 88.7449 89.9468 88.4889V88.4871C90.1556 87.8883 90.3516 87.291 90.5368 86.7067C90.8054 87.3964 90.9996 88.2021 90.9234 89.2912Z" fill="#C50558"/>
<path fill-rule="evenodd" clip-rule="evenodd" d="M94.2052 75.6379C94.3159 78.5421 90.3751 79.4115 89.6093 82.728C89.2117 84.4503 90.014 85.3599 90.5368 86.7065C89.1246 91.1572 87.1461 96.3394 83.1801 97.2778C79.263 98.2054 77.1375 94.1106 71.0333 94.174C64.5642 94.2411 60.589 98.9096 59.4273 97.6826C58.6178 96.8259 60.5364 94.5335 62.8017 89.1805C64.8092 84.434 66.6171 80.1594 66.3103 75.1442C66.1633 72.7482 65.223 70.1274 63.3408 64.8871C62.3334 62.0789 61.5837 60.3346 61.0718 59.1711C61.1227 59.0985 61.1844 59.0313 61.2552 58.9678C63.1955 57.2198 69.4359 60.9789 73.0698 63.168C80.0181 67.3537 83.5829 70.1417 83.5829 70.1417C84.3672 70.7554 85.8574 71.9497 88.1661 72.75C90.25 73.4743 92.1287 73.5741 93.4174 73.538C93.7278 73.9643 94.1689 74.7033 94.2052 75.6379Z" fill="#EB0065"/>
<path fill-rule="evenodd" clip-rule="evenodd" d="M64.3781 60.7264C64.0154 61.2287 70.0207 65.4065 77.7401 73.3717C82.2955 78.0719 85.6762 82.2629 87.8433 85.1043C87.7999 84.1916 87.7565 83.2792 87.713 82.3667C88.2996 81.5194 88.8861 80.6721 89.4729 79.8246C86.992 77.036 83.1864 73.1156 78.0009 69.0696C71.5366 64.0259 64.7509 60.21 64.3781 60.7264Z" fill="#FD99C4"/>
<path fill-rule="evenodd" clip-rule="evenodd" d="M68.1567 70.0273C68.6756 70.6829 69.4048 71.7115 70.0361 73.0852C70.3886 73.8521 71.6831 76.8429 71.1311 83.8676C70.9422 86.2736 70.5007 89.6081 69.397 93.5127C69.703 93.2491 70.6385 92.5131 72.0042 92.4699C74.2089 92.4 75.5388 94.1979 75.6544 94.3601C75.2251 90.008 74.5624 85.2036 73.5512 80.139C72.9698 77.2281 72.2229 73.9786 69.5596 71.261C69.0096 70.6998 68.5035 70.2894 68.1567 70.0273Z" fill="#FD99C4"/>
<path d="M50.5582 55.5056C50.9619 55.1611 51.7259 54.6019 52.834 54.3007C54.2199 53.9241 55.3819 54.1582 55.9128 54.3007C55.418 53.8161 54.4879 53.0361 53.1017 52.5604C52.1414 52.2311 51.2881 52.1596 50.6922 52.1591" stroke="#262C7C" stroke-width="1.4" stroke-linecap="round" stroke-linejoin="round"/>
<path d="M71.4413 51.3557C70.704 51.5972 69.9445 51.8641 69.1657 52.159C68.0258 52.5907 66.9543 53.0412 65.9529 53.4977C66.8492 53.6189 67.9539 53.8505 69.1657 54.3009C70.0543 54.631 70.8143 55.0095 71.4413 55.3718" stroke="#262C7C" stroke-width="1.4" stroke-linecap="round" stroke-linejoin="round"/>
<path fill-rule="evenodd" clip-rule="evenodd" d="M60.7451 68.7386C59.9591 69.1779 59.0552 69.4266 58.0914 69.4266C56.0312 69.4266 54.2378 68.2848 53.3121 66.6004C54.4557 66.0885 55.9749 66.0069 57.4996 66.4788C58.9227 66.9197 60.068 67.7585 60.7451 68.7386Z" fill="#E4E5F7"/>
<path fill-rule="evenodd" clip-rule="evenodd" d="M61.2969 71.5466C60.6888 73.5051 58.0042 74.4145 55.2997 73.5761C52.5952 72.7375 50.8944 70.4686 51.5024 68.5081C51.7675 67.6532 52.4282 66.9979 53.3121 66.6004C54.2378 68.2848 56.0312 69.4266 58.0914 69.4266C59.0552 69.4266 59.9591 69.1779 60.7451 68.7386C61.355 69.621 61.5855 70.6173 61.2969 71.5466Z" fill="#131856"/>
<path d="M49.3489 49.4596C50.0434 49.3158 51.5786 49.0958 53.3729 49.6863C55.3343 50.3318 56.4922 51.5793 56.9434 52.1233" stroke="#262C7C" stroke-width="1.4" stroke-linecap="round" stroke-linejoin="round"/>
<path d="M64.6513 51.0464C65.2171 50.5516 66.2188 49.8056 67.655 49.3462C69.5492 48.7401 71.1772 48.9595 71.9625 49.1195" stroke="#262C7C" stroke-width="1.4" stroke-linecap="round" stroke-linejoin="round"/>
<path fill-rule="evenodd" clip-rule="evenodd" d="M32.4204 50.4741C31.7613 48.7096 30.1021 43.569 31.7769 37.2841C33.4862 30.8704 37.6184 27.2029 39.069 26.0244C37.3875 28.6076 35.2235 32.5643 33.8144 37.7666C32.4159 42.9301 32.2794 47.4064 32.4204 50.4741Z" fill="#8591FF"/>
<path fill-rule="evenodd" clip-rule="evenodd" d="M46.0004 34.1097C45.3985 32.4837 44.8049 30.4496 44.4546 28.0673C43.9398 24.5657 44.1335 21.5546 44.4546 19.3549C44.8058 19.5658 45.1572 19.7765 45.5085 19.9872C45.4671 21.794 45.464 23.6692 45.5085 25.6081C45.5771 28.5962 45.7521 31.4351 46.0004 34.1097Z" fill="#8591FF"/>
<path fill-rule="evenodd" clip-rule="evenodd" d="M77.5677 113.36C76.9959 113.374 76.4242 113.391 75.8524 113.407C75.4168 111.743 75.0174 108.109 74.6871 106.172C74.3114 103.97 74.079 101.905 73.9447 100.008C74.3694 103.556 75.2861 106.203 76.0974 108.029C76.6129 109.191 77.2918 112.316 77.5677 113.36Z" fill="#6468A1"/>
<path fill-rule="evenodd" clip-rule="evenodd" d="M40.7161 100.048C40.142 101.913 39.5793 103.829 39.0322 105.797C38.3858 108.121 37.7947 112.226 37.2538 114.447C37.428 113.841 37.6023 113.236 37.7765 112.63C37.8304 113.24 37.8841 113.85 37.9381 114.46C39.1685 114.428 40.399 114.396 41.6295 114.364C41.7068 112.484 41.6966 108.549 41.5291 106.261C41.3617 103.976 41.0657 101.895 40.7161 100.048Z" fill="#6468A1"/>
<path fill-rule="evenodd" clip-rule="evenodd" d="M61.9758 76.5964C61.9558 76.963 61.934 77.3424 61.9122 77.7399C61.8179 79.4441 61.6327 81.1523 61.384 82.835C60.9774 85.5702 60.4002 88.2368 59.7668 90.689C59.0988 90.6418 58.3982 90.5383 57.6757 90.3568C57.5051 90.3151 57.3363 90.2679 57.1729 90.2207C57.4924 89.2514 57.7973 88.3148 58.0841 87.4145C58.0841 87.4145 58.6741 85.5702 59.3729 82.9402C59.8702 81.0688 60.4238 78.7999 60.8576 76.5129C61.5692 72.7701 61.9667 68.9801 61.2915 66.8092C61.2225 66.5859 60.8286 65.3841 60.6562 63.718C60.5055 62.2514 60.3059 60.3165 60.8123 59.8609C60.638 61.1079 61.4439 63.2679 61.9122 67.2374C62.2753 70.3051 62.1936 72.565 61.9758 76.5964Z" fill="#E4E5F7"/>
</g>
</svg>
