<svg width="115" height="115" viewBox="0 0 115 115" fill="none" xmlns="http://www.w3.org/2000/svg">
<path fill-rule="evenodd" clip-rule="evenodd" d="M57.9894 113.638C89.1876 113.638 114.479 88.3471 114.479 57.1489C114.479 25.9507 89.1876 0.659546 57.9894 0.659546C26.7911 0.659546 1.5 25.9507 1.5 57.1489C1.5 88.3471 26.7911 113.638 57.9894 113.638Z" fill="#E4E5F7"/>
<mask id="mask0" style="mask-type:alpha" maskUnits="userSpaceOnUse" x="1" y="0" width="114" height="115">
<path fill-rule="evenodd" clip-rule="evenodd" d="M1.15192 57.5526C1.15192 89.0352 26.4479 114.557 57.6519 114.557C88.8561 114.557 114.152 89.0352 114.152 57.5526C114.152 26.07 88.8561 0.54834 57.6519 0.54834C26.4479 0.54834 1.15192 26.07 1.15192 57.5526Z" fill="white"/>
</mask>
<g mask="url(#mask0)">
<path fill-rule="evenodd" clip-rule="evenodd" d="M-4.03012 259.957H121.97V23.9571H-4.03012V259.957Z" fill="#E4E5F7"/>
<path fill-rule="evenodd" clip-rule="evenodd" d="M114.203 33.1698H0.263794L14.1288 -13.2986L17.5317 -24.7023L22.593 -41.6605H95.7431L100.535 -22.2321L102.688 -13.513L114.203 33.1698Z" fill="#262C7C"/>
<path d="M7.66504 7.76459C10.4541 7.76459 10.4541 8.96429 13.2432 8.96429C16.0323 8.96429 16.0323 7.76459 18.8216 7.76459C21.6108 7.76459 21.6108 8.96429 24.4005 8.96429C27.1896 8.96429 27.1896 7.76459 29.9788 7.76459C32.7681 7.76459 32.7681 8.96429 35.5574 8.96429C38.3466 8.96429 38.3466 7.76459 41.1359 7.76459C43.9252 7.76459 43.9252 8.96429 46.7145 8.96429C49.5039 8.96429 49.5039 7.76459 52.2932 7.76459C55.0826 7.76459 55.0826 8.96429 57.8723 8.96429C60.6612 8.96429 60.6612 7.76459 63.4499 7.76459C66.2392 7.76459 66.2392 8.96429 69.0284 8.96429C71.8177 8.96429 71.8177 7.76459 74.607 7.76459C77.3966 7.76459 77.3966 8.96429 80.1863 8.96429C82.9757 8.96429 82.9757 7.76459 85.7656 7.76459C88.5552 7.76459 88.5552 8.96429 91.345 8.96429C94.1349 8.96429 94.1349 7.76459 96.9245 7.76459C99.7145 7.76459 99.7145 8.96429 102.505 8.96429C105.295 8.96429 105.295 7.76459 108.085 7.76459" stroke="#6468A1" stroke-width="1.4"/>
<path fill-rule="evenodd" clip-rule="evenodd" d="M98.0411 102.685H77.684V65.3394C77.684 62.0248 80.3469 59.3378 83.6322 59.3378H98.0411V102.685Z" fill="#9195CB"/>
<path d="M3.69666 21.0644C6.6864 21.0644 6.6864 22.2643 9.67614 22.2643C12.6659 22.2643 12.6659 21.0644 15.6558 21.0644C18.6459 21.0644 18.6459 22.2643 21.6362 22.2643C24.6262 22.2643 24.6262 21.0644 27.6159 21.0644C30.606 21.0644 30.606 22.2643 33.5959 22.2643C36.5859 22.2643 36.5859 21.0644 39.5758 21.0644C42.5657 21.0644 42.5657 22.2643 45.5557 22.2643C48.5458 22.2643 48.5458 21.0644 51.5359 21.0644C54.526 21.0644 54.526 22.2643 57.5163 22.2643C60.5064 22.2643 60.5064 21.0644 63.4967 21.0644C66.4865 21.0644 66.4865 22.2643 69.4764 22.2643C72.4662 22.2643 72.4662 21.0644 75.4561 21.0644C78.4464 21.0644 78.4464 22.2643 81.4367 22.2643C84.4268 22.2643 84.4268 21.0644 87.4171 21.0644C90.4076 21.0644 90.4076 22.2643 93.3981 22.2643C96.3882 22.2643 96.3882 21.0644 99.3787 21.0644C102.369 21.0644 102.369 22.2643 105.36 22.2643C108.351 22.2643 108.351 21.0644 111.342 21.0644" stroke="#6468A1" stroke-width="1.4"/>
<path fill-rule="evenodd" clip-rule="evenodd" d="M1 116H114V29H1V116Z" fill="#E4E5F7"/>
<mask id="mask1" style="mask-type:alpha" maskUnits="userSpaceOnUse" x="1" y="29" width="113" height="87">
<path fill-rule="evenodd" clip-rule="evenodd" d="M1 116H114V29H1V116Z" fill="white"/>
</mask>
<g mask="url(#mask1)">
<path fill-rule="evenodd" clip-rule="evenodd" d="M95.5848 29.5328C91.244 34.5171 96.8058 45.4072 100.48 52.6049C104.149 59.7938 108.439 64.954 111.436 68.1404C109.158 71.4346 106.067 76.4384 103.393 82.9809C100.163 90.8866 96.8946 98.8891 100.247 102.343C103.62 105.818 111.935 102.87 114 102.091V29.1414C112.958 28.765 100.159 24.2809 95.5848 29.5328Z" fill="#EB0065"/>
<path fill-rule="evenodd" clip-rule="evenodd" d="M103.001 99C102.983 96.9098 103.215 94.8305 103.591 92.7837C103.973 90.7374 104.511 88.7233 105.191 86.7665C105.87 84.8096 106.695 82.9111 107.653 81.0982C108.619 79.2905 109.71 77.5602 111 76C110.251 77.9265 109.467 79.7941 108.73 81.6771C107.992 83.5581 107.287 85.4443 106.624 87.3475C105.961 89.2507 105.34 91.1709 104.752 93.1125C104.156 95.0534 103.609 97.0165 103.001 99Z" fill="white"/>
<path fill-rule="evenodd" clip-rule="evenodd" d="M106.001 96C105.99 94.7275 106.133 93.4616 106.373 92.2169C106.605 90.9699 106.946 89.7452 107.369 88.5537C107.795 87.363 108.307 86.2054 108.91 85.1046C109.511 84.0025 110.194 82.9498 111 82C110.532 83.1726 110.043 84.3095 109.579 85.4541C109.122 86.6017 108.678 87.7479 108.265 88.9071C107.849 90.0652 107.465 91.2352 107.092 92.4157C106.723 93.5982 106.381 94.7928 106.001 96Z" fill="white"/>
<path fill-rule="evenodd" clip-rule="evenodd" d="M108 56C106.695 54.4314 105.589 52.6971 104.617 50.885C103.65 49.0701 102.824 47.1693 102.143 45.2131C101.461 43.2574 100.929 41.244 100.553 39.2015C100.187 37.1576 99.9662 35.0835 100.004 33C100.612 34.9823 101.158 36.9433 101.748 38.8841C102.337 40.8245 102.954 42.7445 103.615 44.6484C104.276 46.5527 104.98 48.4399 105.723 50.3208C106.459 52.2061 107.247 54.0737 108 56Z" fill="white"/>
<path fill-rule="evenodd" clip-rule="evenodd" d="M110 51C109.184 50.0453 108.493 48.9898 107.889 47.8852C107.278 46.783 106.766 45.6243 106.339 44.4342C105.914 43.2434 105.578 42.0188 105.348 40.7739C105.116 39.5311 104.979 38.2682 105.003 37C105.383 38.2065 105.724 39.4 106.09 40.5822C106.463 41.762 106.845 42.9317 107.26 44.0904C107.671 45.2499 108.115 46.3968 108.574 47.5443C109.037 48.6904 109.53 49.8275 110 51Z" fill="white"/>
<path fill-rule="evenodd" clip-rule="evenodd" d="M18.4152 29.5328C22.756 34.5171 17.1939 45.4075 13.52 52.6049C9.85056 59.7938 5.56078 64.9542 2.56408 68.1407C4.84205 71.4348 7.93261 76.4386 10.6062 82.9808C13.8369 90.8868 17.1054 98.8893 13.7532 102.343C10.3797 105.818 2.06472 102.87 0 102.091V29.1414C1.04153 28.765 13.8412 24.2809 18.4152 29.5328Z" fill="#EB0065"/>
<path fill-rule="evenodd" clip-rule="evenodd" d="M10.9991 99C10.3907 97.0165 9.84427 95.0534 9.24845 93.1125C8.6599 91.1709 8.03889 89.2507 7.37595 87.3475C6.71302 85.444 6.00865 83.5581 5.26963 81.6771C4.53279 79.7941 3.74944 77.9265 3 76C4.28928 77.5602 5.38157 79.2905 6.34739 81.0982C7.30544 82.9111 8.12975 84.8094 8.80844 86.7665C9.48833 88.7233 10.027 90.7374 10.4086 92.7837C10.7854 94.8305 11.0165 96.9095 10.9991 99Z" fill="white"/>
<path fill-rule="evenodd" clip-rule="evenodd" d="M7.99941 97C7.61924 95.7928 7.27695 94.5982 6.90824 93.4157C6.53454 92.2352 6.15062 91.0652 5.73504 89.9071C5.32171 88.7479 4.87796 87.6017 4.421 86.4541C3.95705 85.3095 3.46868 84.1726 3 83C3.80573 83.9495 4.4893 85.0023 5.08961 86.1044C5.69341 87.2054 6.20497 88.363 6.63027 89.5537C7.05408 90.7452 7.39462 91.9699 7.62746 93.2169C7.86654 94.4616 8.01038 95.7275 7.99941 97Z" fill="white"/>
<path fill-rule="evenodd" clip-rule="evenodd" d="M7 56C7.75286 54.0737 8.54122 52.2061 9.27745 50.3208C10.0199 48.4399 10.7238 46.5525 11.3849 44.6484C12.0456 42.7442 12.6635 40.8242 13.2517 38.8841C13.8423 36.9433 14.3876 34.9823 14.9958 33C15.0337 35.0835 14.8136 37.1576 14.4469 39.2015C14.0716 41.244 13.5389 43.2574 12.8573 45.2131C12.1764 47.1693 11.3504 49.0701 10.3825 50.885C9.4105 52.6971 8.30541 54.4314 7 56Z" fill="white"/>
<path fill-rule="evenodd" clip-rule="evenodd" d="M5 52C5.47069 50.8275 5.96284 49.6904 6.42613 48.5445C6.88482 47.3968 7.3287 46.2501 7.7404 45.0904C8.15491 43.9317 8.53698 42.762 8.91037 41.5822C9.27584 40.4002 9.61756 39.2068 9.99734 38C10.0211 39.2682 9.88445 40.5311 9.65178 41.7742C9.42269 43.0188 9.08583 44.2434 8.66085 45.4342C8.23434 46.6243 7.72176 47.7832 7.11136 48.8852C6.50735 49.9898 5.81599 51.0453 5 52Z" fill="white"/>
<path fill-rule="evenodd" clip-rule="evenodd" d="M42.6029 83C41.1919 80.6817 34.2906 74.4842 35.0596 65.482C35.2758 62.9482 35.9392 55.1857 41.8541 49.3826C43.133 48.1273 46.3733 45.0342 51.5308 44.1612C57.9676 43.0721 65.3252 47.8595 65.3252 47.8595C65.3252 47.8595 67.0233 49.4826 67.3839 49.8178C69.3852 51.677 71.472 52.2438 72.531 52.8636C76.7429 55.328 76.0292 65.2615 75.8254 68.0925C75.3311 74.971 70.3275 79.4708 68.3237 82.8866C69.2396 80.5804 73.2324 76.9746 72.7373 71.356C72.4617 68.2298 71.8293 61.0513 66.7663 57.6497C63.097 55.1845 58.9565 55.95 55.6485 56.5619C47.6428 58.0423 42.1503 63.0854 39.3832 66.1341C38.6064 68.3211 40.8066 71.559 41.1614 76.2559C41.3706 79.0213 41.9956 81.3128 42.6029 83Z" fill="#262C7C"/>
<path fill-rule="evenodd" clip-rule="evenodd" d="M43.005 55.984C42.8761 55.7692 45.266 53.5235 48.6702 51.7909C51.7198 50.2383 54.0654 49.8703 54.002 49.4609C53.9445 49.0891 51.9392 48.9525 50.0031 49.3444C47.2908 49.8937 45.6839 51.2841 45.5597 51.0918C45.4333 50.8944 46.9404 49.1614 49.2255 48.0632C51.5503 46.9459 53.6677 46.9723 55.4461 47.0148C57.1602 47.0557 59.8548 47.3395 63 48.6453C61.3539 48.7993 58.939 49.1295 56.1125 49.9268C48.248 52.1453 43.1884 56.2891 43.005 55.984Z" fill="#8591FF"/>
<path fill-rule="evenodd" clip-rule="evenodd" d="M62 91.6642C60.7395 92.524 59.1067 93.48 57.1092 94.3034C54.7818 95.2616 52.6645 95.7451 51 96L51.4139 88H61.7038L62 91.6642Z" fill="#9195CB"/>
<path fill-rule="evenodd" clip-rule="evenodd" d="M63 99H50L50.196 95.4541C52.0287 95.1922 54.3603 94.6956 56.9229 93.7112C59.1217 92.8658 60.9195 91.8832 62.3073 91L63 99Z" fill="#E4E5F7"/>
<path fill-rule="evenodd" clip-rule="evenodd" d="M38.5157 76C36.489 75.4021 35 73.416 35 71.0573C35 68.5143 36.7313 66.4038 39 66" fill="#9195CB"/>
<path fill-rule="evenodd" clip-rule="evenodd" d="M72.9464 73C74.7358 72.2357 76 70.3667 76 68.1857C76 65.3221 73.8227 63 71.1375 63C71.091 63 71.0465 63 71 63.0051" fill="#9195CB"/>
<path fill-rule="evenodd" clip-rule="evenodd" d="M73 72C73 81.9411 65.165 90 55.5 90C45.835 90 38 81.9411 38 72C38 62.0585 45.835 54 55.5 54C65.165 54 73 62.0585 73 72Z" fill="#BEC1E0"/>
<path d="M44 61.9831C44.6839 62.0303 46.1865 62.0365 47.8181 61.1866C49.731 60.1899 50.6726 58.6148 51 58" stroke="#262C7C" stroke-width="1.4" stroke-linecap="round"/>
<path d="M60 58C60.5184 58.6811 61.444 59.7181 62.8965 60.5881C64.5428 61.5742 66.0997 61.8863 67 62" stroke="#262C7C" stroke-width="1.4" stroke-linecap="round"/>
<path d="M59 65C59.295 65.2205 60.0715 65.74 61.2974 65.9304C62.5941 66.1316 63.6245 65.8448 64 65.7235" stroke="#262C7C" stroke-width="1.4" stroke-linecap="round"/>
<path d="M46 65.9016C46.2907 65.9678 47.1681 66.1334 48.1334 65.7897C49.5169 65.297 49.9423 64.1637 50 64" stroke="#262C7C" stroke-width="1.4" stroke-linecap="round"/>
<path d="M53.5326 65C51.7414 69.7631 51.5007 73.8246 52.9136 75.0899C53.7963 75.8803 54.7706 75.9839 54.7706 75.9839C55.8595 76.1 56.702 75.5587 57 75.3454" stroke="#262C7C" stroke-width="1.4" stroke-linecap="round"/>
<path fill-rule="evenodd" clip-rule="evenodd" d="M90 120H27C27.9762 111.916 31.4835 107.699 33.2515 105.927C35.3875 103.788 37.6916 102.502 41.9069 100.153C44.7683 98.5585 47.3766 97.3164 49.561 96.3656C51.1579 98.2467 53.5413 99.4379 56.2034 99.4379C59.034 99.4379 61.5504 98.0911 63.147 96C65.3568 96.3936 68.8595 97.1862 72.9242 98.8294C77.9696 100.872 81.3955 102.257 84.4664 105.567C88.2678 109.659 89.5578 116.616 90 120Z" fill="#262C7C"/>
<path d="M49 101.241C50.2244 101.892 53.0531 103.18 56.8167 102.979C60.9995 102.756 63.8972 100.823 65 100" stroke="#1B1464" stroke-width="4.593" stroke-linecap="round"/>
<path d="M48 83C48.9315 82.3808 51.5977 80.7899 55.2403 81.0232C58.0261 81.202 60.0466 82.3614 61 83" stroke="#262C7C" stroke-width="1.4" stroke-linecap="round"/>
</g>
</g>
</svg>
